<svg id="visual" viewBox="0 0 900 600" width="900" height="600" xmlns="http://www.w3.org/2000/svg" xmlns:xlink="http://www.w3.org/1999/xlink" version="1.1"><rect x="0" y="0" width="900" height="600" fill="#002233"></rect><path d="M0 200L8.3 184.3C16.7 168.7 33.3 137.3 50 114.5C66.7 91.7 83.3 77.3 100 66.3C116.7 55.3 133.3 47.7 150 57.7C166.7 67.7 183.3 95.3 200 98.8C216.7 102.3 233.3 81.7 250 92.8C266.7 104 283.3 147 300 162.2C316.7 177.3 333.3 164.7 350 144.7C366.7 124.7 383.3 97.3 400 95.3C416.7 93.3 433.3 116.7 450 115.5C466.7 114.3 483.3 88.7 500 74C516.7 59.3 533.3 55.7 550 56.2C566.7 56.7 583.3 61.3 600 75.2C616.7 89 633.3 112 650 112.2C666.7 112.3 683.3 89.7 700 73.8C716.7 58 733.3 49 750 64.5C766.7 80 783.3 120 800 146.7C816.7 173.3 833.3 186.7 850 192C866.7 197.3 883.3 194.7 891.7 193.3L900 192L900 0L891.7 0C883.3 0 866.7 0 850 0C833.3 0 816.7 0 800 0C783.3 0 766.7 0 750 0C733.3 0 716.7 0 700 0C683.3 0 666.7 0 650 0C633.3 0 616.7 0 600 0C583.3 0 566.7 0 550 0C533.3 0 516.7 0 500 0C483.3 0 466.7 0 450 0C433.3 0 416.7 0 400 0C383.3 0 366.7 0 350 0C333.3 0 316.7 0 300 0C283.3 0 266.7 0 250 0C233.3 0 216.7 0 200 0C183.3 0 166.7 0 150 0C133.3 0 116.7 0 100 0C83.3 0 66.7 0 50 0C33.3 0 16.7 0 8.3 0L0 0Z" fill="#0066FF" stroke-linecap="round" stroke-linejoin="miter"></path></svg>