<svg id="visual" viewBox="0 0 900 600" width="900" height="600" xmlns="http://www.w3.org/2000/svg" xmlns:xlink="http://www.w3.org/1999/xlink" version="1.1"><rect x="0" y="0" width="900" height="600" fill="#361c94"></rect><path d="M0 245L129 238L257 176L386 213L514 171L643 231L771 245L900 219L900 0L771 0L643 0L514 0L386 0L257 0L129 0L0 0Z" fill="#0f0c6e"></path><path d="M0 156L129 156L257 176L386 203L514 136L643 153L771 146L900 139L900 0L771 0L643 0L514 0L386 0L257 0L129 0L0 0Z" fill="#15178e"></path><path d="M0 87L129 128L257 147L386 109L514 128L643 96L771 96L900 152L900 0L771 0L643 0L514 0L386 0L257 0L129 0L0 0Z" fill="#1823af"></path><path d="M0 109L129 88L257 112L386 65L514 91L643 114L771 110L900 73L900 0L771 0L643 0L514 0L386 0L257 0L129 0L0 0Z" fill="#162fd1"></path><path d="M0 46L129 55L257 42L386 46L514 39L643 35L771 44L900 44L900 0L771 0L643 0L514 0L386 0L257 0L129 0L0 0Z" fill="#0a3cf5"></path></svg>